REM DIRINDEX 1\2\5,1\2\6,1\2\7,1\2\8,1\3\9,1\3\10,1\3\11,1\4\12,1\4\13,1\4\14,1\4\15,1\4\16
REM DIRNAME folder01,folder02,folder03,folder04,folder05,folder06,folder07,folder08,folder09,folder10,folder11,folder12,folder13,folder14,folder15,folder16
TITLE ""
FILE "1200_2_sec02_0604_0620.mp3" MP3
  TRACK 01 AUDIO
    TITLE "0:"
    INDEX 01 00:00:00
  TRACK 02 AUDIO
    TITLE "10:cjc034_01236"
    INDEX 01 00:00:15
  TRACK 03 AUDIO
    TITLE "0:"
    INDEX 01 00:02:57
  TRACK 04 AUDIO
    TITLE "9:cjc034_01237"
    INDEX 01 00:03:06
  TRACK 05 AUDIO
    TITLE "0:"
    INDEX 01 00:05:12
  TRACK 06 AUDIO
    TITLE "10:cjc034_01238"
    INDEX 01 00:06:10
  TRACK 07 AUDIO
    TITLE "0:"
    INDEX 01 00:07:09
  TRACK 08 AUDIO
    TITLE "9:cjc034_01239"
    INDEX 01 00:07:31
  TRACK 09 AUDIO
    TITLE "0:"
    INDEX 01 00:09:06
  TRACK 10 AUDIO
    TITLE "10:cjc034_01240"
    INDEX 01 00:10:02
  TRACK 11 AUDIO
    TITLE "0:"
    INDEX 01 00:11:31
  TRACK 12 AUDIO
    TITLE "9:cjc034_01241"
    INDEX 01 00:11:58
  TRACK 13 AUDIO
    TITLE "0:"
    INDEX 01 00:13:12
  TRACK 14 AUDIO
    TITLE "10:cjc034_01242"
    INDEX 01 00:14:11
  TRACK 15 AUDIO
    TITLE "0:"
    INDEX 01 00:15:19
  TRACK 16 AUDIO
    TITLE "9:cjc034_01243"
    INDEX 01 00:15:40
  TRACK 17 AUDIO
    TITLE "0:"
    INDEX 01 00:17:10
  TRACK 18 AUDIO
    TITLE "10:cjc034_01244"
    INDEX 01 00:18:07
  TRACK 19 AUDIO
    TITLE "0:"
    INDEX 01 00:19:30
  TRACK 20 AUDIO
    TITLE "9:cjc034_01245"
    INDEX 01 00:19:48
  TRACK 21 AUDIO
    TITLE "0:"
    INDEX 01 00:21:39
  TRACK 22 AUDIO
    TITLE "11:cjc034_01246"
    INDEX 01 00:23:12
  TRACK 23 AUDIO
    TITLE "0:"
    INDEX 01 00:27:55
  TRACK 24 AUDIO
    TITLE "10:cjc034_01247"
    INDEX 01 00:28:64
  TRACK 25 AUDIO
    TITLE "0:"
    INDEX 01 00:30:03
  TRACK 26 AUDIO
    TITLE "9:cjc034_01248"
    INDEX 01 00:30:26
  TRACK 27 AUDIO
    TITLE "0:"
    INDEX 01 00:36:74
  TRACK 28 AUDIO
    TITLE "10:cjc034_01249"
    INDEX 01 00:37:69
  TRACK 29 AUDIO
    TITLE "0:"
    INDEX 01 00:40:58
  TRACK 30 AUDIO
    TITLE "9:cjc034_01250"
    INDEX 01 00:41:02
  TRACK 31 AUDIO
    TITLE "0:"
    INDEX 01 00:42:55
  TRACK 32 AUDIO
    TITLE "10:cjc034_01251"
    INDEX 01 00:43:50
  TRACK 33 AUDIO
    TITLE "0:"
    INDEX 01 00:44:61
  TRACK 34 AUDIO
    TITLE "9:cjc034_01252"
    INDEX 01 00:45:04
  TRACK 35 AUDIO
    TITLE "0:"
    INDEX 01 00:48:08
  TRACK 36 AUDIO
    TITLE "10:cjc034_01253"
    INDEX 01 00:49:04
  TRACK 37 AUDIO
    TITLE "0:"
    INDEX 01 00:50:27
  TRACK 38 AUDIO
    TITLE "9:cjc034_01254"
    INDEX 01 00:50:54
  TRACK 39 AUDIO
    TITLE "0:"
    INDEX 01 00:54:15
  TRACK 40 AUDIO
    TITLE "10:cjc034_01255"
    INDEX 01 00:55:14
  TRACK 41 AUDIO
    TITLE "0:"
    INDEX 01 00:56:74
  TRACK 42 AUDIO
    TITLE "9:cjc034_01256"
    INDEX 01 00:57:19
  TRACK 43 AUDIO
    TITLE "0:"
    INDEX 01 01:03:24
  TRACK 44 AUDIO
    TITLE "10:cjc034_01257"
    INDEX 01 01:04:23
  TRACK 45 AUDIO
    TITLE "0:"
    INDEX 01 01:07:61
  TRACK 46 AUDIO
    TITLE "9:cjc034_01258"
    INDEX 01 01:08:07
  TRACK 47 AUDIO
    TITLE "0:"
    INDEX 01 01:11:51
  TRACK 48 AUDIO
    TITLE "10:cjc034_01259"
    INDEX 01 01:12:46
  TRACK 49 AUDIO
    TITLE "0:"
    INDEX 01 01:14:33
  TRACK 50 AUDIO
    TITLE "9:cjc034_01260"
    INDEX 01 01:14:51
  TRACK 51 AUDIO
    TITLE "0:"
    INDEX 01 01:17:22
  TRACK 52 AUDIO
    TITLE "10:cjc034_01261"
    INDEX 01 01:18:19
  TRACK 53 AUDIO
    TITLE "0:"
    INDEX 01 01:20:12
  TRACK 54 AUDIO
    TITLE "9:cjc034_01262"
    INDEX 01 01:20:34
  TRACK 55 AUDIO
    TITLE "0:"
    INDEX 01 01:27:03
  TRACK 56 AUDIO
    TITLE "10:cjc034_01263"
    INDEX 01 01:27:73
  TRACK 57 AUDIO
    TITLE "0:"
    INDEX 01 01:29:33
  TRACK 58 AUDIO
    TITLE "9:cjc034_01264"
    INDEX 01 01:29:58
  TRACK 59 AUDIO
    TITLE "0:"
    INDEX 01 01:31:41
  TRACK 60 AUDIO
    TITLE "10:cjc034_01265"
    INDEX 01 01:32:39
  TRACK 61 AUDIO
    TITLE "0:"
    INDEX 01 01:34:16
  TRACK 62 AUDIO
    TITLE "9:cjc034_01266"
    INDEX 01 01:34:34
  TRACK 63 AUDIO
    TITLE "0:"
    INDEX 01 01:39:33
  TRACK 64 AUDIO
    TITLE "10:cjc034_01267"
    INDEX 01 01:40:31
  TRACK 65 AUDIO
    TITLE "0:"
    INDEX 01 01:44:66
  TRACK 66 AUDIO
    TITLE "9:cjc034_01268"
    INDEX 01 01:45:14
  TRACK 67 AUDIO
    TITLE "0:"
    INDEX 01 01:46:66
  TRACK 68 AUDIO
    TITLE "10:cjc034_01269"
    INDEX 01 01:47:64
  TRACK 69 AUDIO
    TITLE "0:"
    INDEX 01 01:51:15
  TRACK 70 AUDIO
    TITLE "9:cjc034_01270"
    INDEX 01 01:51:32
  TRACK 71 AUDIO
    TITLE "0:"
    INDEX 01 01:53:23
